<svg xmlns="http://www.w3.org/2000/svg" xmlns:xlink="http://www.w3.org/1999/xlink" zoomAndPan="magnify" preserveAspectRatio="xMidYMid meet" version="1.0" viewBox="-546 -546 2592 2592"><defs><filter x="0%" y="0%" width="100%" height="100%" id="1f77c4b5c9"><feColorMatrix values="0 0 0 0 1 0 0 0 0 1 0 0 0 0 1 0 0 0 1 0" color-interpolation-filters="sRGB"/></filter><g/><clipPath id="16be05bfaa"><path d="M 255 474 L 840 474 L 840 1276 L 255 1276 Z M 255 474 " clip-rule="nonzero"/></clipPath><clipPath id="a6962fc747"><path d="M 533.59375 474.503906 L 839.363281 1149.867188 L 561 1275.894531 L 255.230469 600.535156 Z M 533.59375 474.503906 " clip-rule="nonzero"/></clipPath><clipPath id="c842f636c1"><path d="M 0.121094 0.480469 L 584.519531 0.480469 L 584.519531 802 L 0.121094 802 Z M 0.121094 0.480469 " clip-rule="nonzero"/></clipPath><clipPath id="899fc15f0e"><path d="M 278.59375 0.503906 L 584.363281 675.867188 L 306 801.894531 L 0.230469 126.535156 Z M 278.59375 0.503906 " clip-rule="nonzero"/></clipPath><clipPath id="9623a5f9a8"><rect x="0" width="585" y="0" height="802"/></clipPath><clipPath id="6263125ba2"><rect x="0" width="511" y="0" height="904"/></clipPath><clipPath id="7706dc19dc"><path d="M 0 0 L 1500 0 L 1500 1500 L 0 1500 Z M 0 0 " clip-rule="nonzero"/></clipPath><linearGradient x1="-934.064261" gradientTransform="matrix(0.750017, 0, 0, 0.75001, 700.564197, 438.102374)" y1="601.5" x2="1065.88998" gradientUnits="userSpaceOnUse" y2="601.5" id="b57027c26d"><stop stop-opacity="1" stop-color="rgb(38.42926%, 74.899292%, 83.139038%)" offset="0"/><stop stop-opacity="1" stop-color="rgb(38.42926%, 74.899292%, 83.139038%)" offset="0.25"/><stop stop-opacity="1" stop-color="rgb(38.42926%, 74.899292%, 83.139038%)" offset="0.375"/><stop stop-opacity="1" stop-color="rgb(38.42926%, 74.899292%, 83.139038%)" offset="0.4375"/><stop stop-opacity="1" stop-color="rgb(38.560486%, 74.926758%, 83.052063%)" offset="0.46875"/><stop stop-opacity="1" stop-color="rgb(39.292908%, 75.080872%, 82.569885%)" offset="0.472656"/><stop stop-opacity="1" stop-color="rgb(39.89563%, 75.20752%, 82.174683%)" offset="0.476562"/><stop stop-opacity="1" stop-color="rgb(40.496826%, 75.332642%, 81.77948%)" offset="0.480469"/><stop stop-opacity="1" stop-color="rgb(41.099548%, 75.45929%, 81.384277%)" offset="0.484375"/><stop stop-opacity="1" stop-color="rgb(41.700745%, 75.585938%, 80.987549%)" offset="0.488281"/><stop stop-opacity="1" stop-color="rgb(42.303467%, 75.712585%, 80.592346%)" offset="0.492187"/><stop stop-opacity="1" stop-color="rgb(42.904663%, 75.837708%, 80.195618%)" offset="0.496094"/><stop stop-opacity="1" stop-color="rgb(43.507385%, 75.964355%, 79.800415%)" offset="0.5"/><stop stop-opacity="1" stop-color="rgb(44.108582%, 76.091003%, 79.405212%)" offset="0.503906"/><stop stop-opacity="1" stop-color="rgb(44.709778%, 76.217651%, 79.01001%)" offset="0.507812"/><stop stop-opacity="1" stop-color="rgb(45.310974%, 76.342773%, 78.613281%)" offset="0.511719"/><stop stop-opacity="1" stop-color="rgb(45.913696%, 76.469421%, 78.218079%)" offset="0.515625"/><stop stop-opacity="1" stop-color="rgb(46.514893%, 76.596069%, 77.822876%)" offset="0.519531"/><stop stop-opacity="1" stop-color="rgb(47.117615%, 76.722717%, 77.427673%)" offset="0.523438"/><stop stop-opacity="1" stop-color="rgb(47.718811%, 76.849365%, 77.030945%)" offset="0.527344"/><stop stop-opacity="1" stop-color="rgb(48.321533%, 76.976013%, 76.635742%)" offset="0.53125"/><stop stop-opacity="1" stop-color="rgb(48.922729%, 77.101135%, 76.239014%)" offset="0.535156"/><stop stop-opacity="1" stop-color="rgb(49.525452%, 77.227783%, 75.843811%)" offset="0.539062"/><stop stop-opacity="1" stop-color="rgb(50.126648%, 77.354431%, 75.448608%)" offset="0.542969"/><stop stop-opacity="1" stop-color="rgb(50.72937%, 77.481079%, 75.053406%)" offset="0.546875"/><stop stop-opacity="1" stop-color="rgb(51.330566%, 77.606201%, 74.656677%)" offset="0.550781"/><stop stop-opacity="1" stop-color="rgb(51.931763%, 77.732849%, 74.261475%)" offset="0.554688"/><stop stop-opacity="1" stop-color="rgb(52.532959%, 77.859497%, 73.864746%)" offset="0.558594"/><stop stop-opacity="1" stop-color="rgb(53.135681%, 77.986145%, 73.469543%)" offset="0.5625"/><stop stop-opacity="1" stop-color="rgb(53.736877%, 78.111267%, 73.074341%)" offset="0.566406"/><stop stop-opacity="1" stop-color="rgb(54.3396%, 78.237915%, 72.679138%)" offset="0.570312"/><stop stop-opacity="1" stop-color="rgb(54.940796%, 78.364563%, 72.28241%)" offset="0.574219"/><stop stop-opacity="1" stop-color="rgb(55.543518%, 78.491211%, 71.887207%)" offset="0.578125"/><stop stop-opacity="1" stop-color="rgb(56.144714%, 78.616333%, 71.492004%)" offset="0.582031"/><stop stop-opacity="1" stop-color="rgb(56.747437%, 78.742981%, 71.096802%)" offset="0.585938"/><stop stop-opacity="1" stop-color="rgb(57.348633%, 78.869629%, 70.700073%)" offset="0.589844"/><stop stop-opacity="1" stop-color="rgb(57.949829%, 78.996277%, 70.304871%)" offset="0.59375"/><stop stop-opacity="1" stop-color="rgb(58.551025%, 79.122925%, 69.908142%)" offset="0.597656"/><stop stop-opacity="1" stop-color="rgb(59.153748%, 79.249573%, 69.512939%)" offset="0.601562"/><stop stop-opacity="1" stop-color="rgb(59.754944%, 79.374695%, 69.117737%)" offset="0.605469"/><stop stop-opacity="1" stop-color="rgb(60.357666%, 79.501343%, 68.722534%)" offset="0.609375"/><stop stop-opacity="1" stop-color="rgb(60.958862%, 79.627991%, 68.325806%)" offset="0.613281"/><stop stop-opacity="1" stop-color="rgb(61.561584%, 79.754639%, 67.930603%)" offset="0.617188"/><stop stop-opacity="1" stop-color="rgb(62.162781%, 79.879761%, 67.5354%)" offset="0.621094"/><stop stop-opacity="1" stop-color="rgb(62.765503%, 80.006409%, 67.140198%)" offset="0.625"/><stop stop-opacity="1" stop-color="rgb(63.366699%, 80.133057%, 66.743469%)" offset="0.628906"/><stop stop-opacity="1" stop-color="rgb(63.969421%, 80.259705%, 66.348267%)" offset="0.632812"/><stop stop-opacity="1" stop-color="rgb(64.570618%, 80.384827%, 65.951538%)" offset="0.636719"/><stop stop-opacity="1" stop-color="rgb(65.171814%, 80.511475%, 65.556335%)" offset="0.640625"/><stop stop-opacity="1" stop-color="rgb(65.77301%, 80.638123%, 65.161133%)" offset="0.644531"/><stop stop-opacity="1" stop-color="rgb(66.375732%, 80.764771%, 64.76593%)" offset="0.648437"/><stop stop-opacity="1" stop-color="rgb(66.976929%, 80.889893%, 64.369202%)" offset="0.652344"/><stop stop-opacity="1" stop-color="rgb(67.579651%, 81.016541%, 63.973999%)" offset="0.65625"/><stop stop-opacity="1" stop-color="rgb(68.180847%, 81.143188%, 63.578796%)" offset="0.660156"/><stop stop-opacity="1" stop-color="rgb(68.783569%, 81.269836%, 63.183594%)" offset="0.664062"/><stop stop-opacity="1" stop-color="rgb(69.384766%, 81.396484%, 62.786865%)" offset="0.667969"/><stop stop-opacity="1" stop-color="rgb(69.987488%, 81.523132%, 62.391663%)" offset="0.671875"/><stop stop-opacity="1" stop-color="rgb(70.588684%, 81.648254%, 61.994934%)" offset="0.675781"/><stop stop-opacity="1" stop-color="rgb(71.18988%, 81.774902%, 61.599731%)" offset="0.679688"/><stop stop-opacity="1" stop-color="rgb(71.791077%, 81.90155%, 61.204529%)" offset="0.683594"/><stop stop-opacity="1" stop-color="rgb(72.393799%, 82.028198%, 60.809326%)" offset="0.6875"/><stop stop-opacity="1" stop-color="rgb(72.994995%, 82.15332%, 60.412598%)" offset="0.691406"/><stop stop-opacity="1" stop-color="rgb(73.597717%, 82.279968%, 60.017395%)" offset="0.695312"/><stop stop-opacity="1" stop-color="rgb(74.198914%, 82.406616%, 59.620667%)" offset="0.699219"/><stop stop-opacity="1" stop-color="rgb(74.801636%, 82.533264%, 59.225464%)" offset="0.703125"/><stop stop-opacity="1" stop-color="rgb(75.402832%, 82.658386%, 58.830261%)" offset="0.707031"/><stop stop-opacity="1" stop-color="rgb(76.005554%, 82.785034%, 58.435059%)" offset="0.710937"/><stop stop-opacity="1" stop-color="rgb(76.60675%, 82.911682%, 58.03833%)" offset="0.714844"/><stop stop-opacity="1" stop-color="rgb(77.207947%, 83.03833%, 57.643127%)" offset="0.71875"/><stop stop-opacity="1" stop-color="rgb(77.809143%, 83.163452%, 57.247925%)" offset="0.722656"/><stop stop-opacity="1" stop-color="rgb(78.411865%, 83.2901%, 56.852722%)" offset="0.726562"/><stop stop-opacity="1" stop-color="rgb(79.013062%, 83.416748%, 56.455994%)" offset="0.730469"/><stop stop-opacity="1" stop-color="rgb(79.615784%, 83.543396%, 56.060791%)" offset="0.734375"/><stop stop-opacity="1" stop-color="rgb(80.21698%, 83.670044%, 55.664062%)" offset="0.738281"/><stop stop-opacity="1" stop-color="rgb(80.819702%, 83.796692%, 55.26886%)" offset="0.742187"/><stop stop-opacity="1" stop-color="rgb(81.420898%, 83.921814%, 54.873657%)" offset="0.746094"/><stop stop-opacity="1" stop-color="rgb(82.023621%, 84.048462%, 54.478455%)" offset="0.75"/><stop stop-opacity="1" stop-color="rgb(82.624817%, 84.17511%, 54.081726%)" offset="0.753906"/><stop stop-opacity="1" stop-color="rgb(83.227539%, 84.301758%, 53.686523%)" offset="0.757812"/><stop stop-opacity="1" stop-color="rgb(83.828735%, 84.42688%, 53.291321%)" offset="0.761719"/><stop stop-opacity="1" stop-color="rgb(84.429932%, 84.553528%, 52.896118%)" offset="0.765625"/><stop stop-opacity="1" stop-color="rgb(85.031128%, 84.680176%, 52.49939%)" offset="0.769531"/><stop stop-opacity="1" stop-color="rgb(85.63385%, 84.806824%, 52.104187%)" offset="0.773437"/><stop stop-opacity="1" stop-color="rgb(86.235046%, 84.931946%, 51.707458%)" offset="0.777344"/><stop stop-opacity="1" stop-color="rgb(86.837769%, 85.058594%, 51.312256%)" offset="0.78125"/><stop stop-opacity="1" stop-color="rgb(87.438965%, 85.185242%, 50.917053%)" offset="0.785156"/><stop stop-opacity="1" stop-color="rgb(88.041687%, 85.31189%, 50.521851%)" offset="0.789062"/><stop stop-opacity="1" stop-color="rgb(88.642883%, 85.437012%, 50.125122%)" offset="0.792969"/><stop stop-opacity="1" stop-color="rgb(89.245605%, 85.56366%, 49.729919%)" offset="0.796875"/><stop stop-opacity="1" stop-color="rgb(89.846802%, 85.690308%, 49.334717%)" offset="0.800781"/><stop stop-opacity="1" stop-color="rgb(90.447998%, 85.816956%, 48.939514%)" offset="0.804688"/><stop stop-opacity="1" stop-color="rgb(91.049194%, 85.943604%, 48.542786%)" offset="0.808594"/><stop stop-opacity="1" stop-color="rgb(91.651917%, 86.070251%, 48.147583%)" offset="0.8125"/><stop stop-opacity="1" stop-color="rgb(92.253113%, 86.195374%, 47.750854%)" offset="0.816406"/><stop stop-opacity="1" stop-color="rgb(92.855835%, 86.322021%, 47.355652%)" offset="0.820312"/><stop stop-opacity="1" stop-color="rgb(93.457031%, 86.448669%, 46.960449%)" offset="0.824219"/><stop stop-opacity="1" stop-color="rgb(94.059753%, 86.575317%, 46.565247%)" offset="0.828125"/><stop stop-opacity="1" stop-color="rgb(94.284058%, 86.62262%, 46.417236%)" offset="0.832031"/><stop stop-opacity="1" stop-color="rgb(94.509888%, 86.669922%, 46.269226%)" offset="0.835938"/><stop stop-opacity="1" stop-color="rgb(94.509888%, 86.669922%, 46.269226%)" offset="0.84375"/><stop stop-opacity="1" stop-color="rgb(94.509888%, 86.669922%, 46.269226%)" offset="0.875"/><stop stop-opacity="1" stop-color="rgb(94.509888%, 86.669922%, 46.269226%)" offset="1"/></linearGradient><clipPath id="4f40d51197"><rect x="0" width="1500" y="0" height="1500"/></clipPath><clipPath id="18e4e5a50c"><rect x="0" width="1500" y="0" height="1500"/></clipPath><clipPath id="2f5fc38629"><rect x="0" width="1500" y="0" height="1500"/></clipPath><mask id="6cfbbdd188"><g filter="url(#1f77c4b5c9)"><g transform="matrix(1, 0, 0, 1, 0, 0.000000000000112861)"><g clip-path="url(#2f5fc38629)"><g transform="matrix(1, 0, 0, 1, 0, 0.000000000000112861)"><g clip-path="url(#18e4e5a50c)"><g fill="#000000" fill-opacity="1"><g transform="translate(700.558677, 1096.608366)"><g><path d="M 32.234375 -644.59375 L 288.78125 -644.59375 C 296.945312 -644.59375 308.976562 -644.160156 324.875 -643.296875 C 340.78125 -642.441406 358.1875 -639.863281 377.09375 -635.5625 C 396 -631.269531 414.046875 -624.179688 431.234375 -614.296875 C 448.429688 -604.410156 462.613281 -590.550781 473.78125 -572.71875 C 484.957031 -554.882812 490.546875 -532.003906 490.546875 -504.078125 C 490.546875 -483.023438 484.53125 -463.363281 472.5 -445.09375 C 460.46875 -426.832031 443.707031 -411.039062 422.21875 -397.71875 C 400.726562 -384.394531 375.800781 -374.082031 347.4375 -366.78125 C 369.351562 -362.914062 390.945312 -357.003906 412.21875 -349.046875 C 433.5 -341.097656 452.835938 -330.351562 470.234375 -316.8125 C 487.640625 -303.28125 501.5 -286.09375 511.8125 -265.25 C 522.125 -244.414062 527.28125 -219.171875 527.28125 -189.515625 C 527.28125 -159.859375 522.335938 -134.285156 512.453125 -112.796875 C 502.578125 -91.316406 489.6875 -73.269531 473.78125 -58.65625 C 457.882812 -44.050781 440.484375 -32.445312 421.578125 -23.84375 C 402.671875 -15.25 383.867188 -9.125 365.171875 -5.46875 C 346.472656 -1.820312 329.601562 0 314.5625 0 L 32.234375 0 L 32.234375 -5.15625 C 53.722656 -8.59375 67.363281 -22.234375 73.15625 -46.078125 C 78.957031 -69.929688 81.859375 -103.773438 81.859375 -147.609375 C 81.859375 -206.054688 81.859375 -264.285156 81.859375 -322.296875 C 81.859375 -380.316406 81.859375 -438.550781 81.859375 -497 C 81.859375 -540.820312 78.957031 -574.765625 73.15625 -598.828125 C 67.363281 -622.890625 53.722656 -636.425781 32.234375 -639.4375 Z M 248.171875 -355.828125 L 159.859375 -355.828125 L 159.859375 -19.34375 L 260.421875 -19.34375 C 319.296875 -19.34375 365.0625 -33.519531 397.71875 -61.875 C 430.382812 -90.238281 446.71875 -132.785156 446.71875 -189.515625 C 446.71875 -200.691406 445.535156 -213.476562 443.171875 -227.875 C 440.804688 -242.269531 436.078125 -256.878906 428.984375 -271.703125 C 421.890625 -286.523438 411.144531 -300.164062 396.75 -312.625 C 382.351562 -325.09375 363.125 -335.300781 339.0625 -343.25 C 315 -351.207031 284.703125 -355.398438 248.171875 -355.828125 Z M 266.875 -375.15625 C 309.84375 -375.15625 344.429688 -386.113281 370.640625 -408.03125 C 396.859375 -429.945312 409.96875 -461.535156 409.96875 -502.796875 C 409.96875 -541.035156 397.828125 -571.113281 373.546875 -593.03125 C 349.265625 -614.945312 314.347656 -625.90625 268.796875 -625.90625 L 159.859375 -625.90625 L 159.859375 -375.15625 Z M 266.875 -375.15625 "/></g></g></g></g></g></g></g></g></mask><clipPath id="27a29213bc"><path d="M 0 0 L 1500 0 L 1500 1500 L 0 1500 Z M 0 0 " clip-rule="nonzero"/></clipPath><clipPath id="f2946eb1ef"><rect x="0" width="1500" y="0" height="1500"/></clipPath><clipPath id="f7cb792b60"><rect x="0" width="1500" y="0" height="1500"/></clipPath><clipPath id="9a5171493b"><path d="M 224.207031 660.570312 L 1209.785156 660.570312 L 1209.785156 863.949219 L 224.207031 863.949219 Z M 224.207031 660.570312 " clip-rule="nonzero"/></clipPath><clipPath id="db7308bdd4"><path d="M 0.207031 0.570312 L 985.785156 0.570312 L 985.785156 203.949219 L 0.207031 203.949219 Z M 0.207031 0.570312 " clip-rule="nonzero"/></clipPath><clipPath id="b622afe58e"><rect x="0" width="986" y="0" height="204"/></clipPath></defs><rect x="-150" width="1800" fill="#ffffff" y="-149.999993" height="1799.99992" fill-opacity="1"/><rect x="-150" width="1800" fill="#ece2d6" y="-149.999993" height="1799.99992" fill-opacity="1"/><g clip-path="url(#16be05bfaa)"><g clip-path="url(#a6962fc747)"><g transform="matrix(1, 0, 0, 1, 255, 474)"><g clip-path="url(#9623a5f9a8)"><g clip-path="url(#c842f636c1)"><g clip-path="url(#899fc15f0e)"><path fill="#ece2d6" d="M 278.59375 0.503906 L 584.3125 675.757812 L 305.949219 801.785156 L 0.230469 126.535156 Z M 278.59375 0.503906 " fill-opacity="1" fill-rule="nonzero"/></g></g></g></g></g></g><g transform="matrix(1, 0, 0, 1, 283, 360)"><g clip-path="url(#6263125ba2)"><g fill="#000000" fill-opacity="1"><g transform="translate(2.097874, 660.341025)"><g><path d="M 51.5625 -47.0625 L 51.5625 -170.828125 L 59.953125 -170.828125 C 71.554688 -138.160156 86.703125 -109.363281 105.390625 -84.4375 C 124.085938 -59.519531 146.863281 -40.078125 173.71875 -26.109375 C 200.582031 -12.140625 232.0625 -5.15625 268.15625 -5.15625 C 287.0625 -5.15625 305.859375 -7.625 324.546875 -12.5625 C 343.242188 -17.507812 360.222656 -24.816406 375.484375 -34.484375 C 390.742188 -44.148438 402.992188 -56.070312 412.234375 -70.25 C 421.472656 -84.4375 426.09375 -100.554688 426.09375 -118.609375 C 426.09375 -143.960938 419.644531 -166.203125 406.75 -185.328125 C 393.851562 -204.453125 376.660156 -221.640625 355.171875 -236.890625 C 333.691406 -252.148438 310.164062 -266.546875 284.59375 -280.078125 C 259.019531 -293.617188 233.445312 -307.367188 207.875 -321.328125 C 182.3125 -335.296875 158.785156 -350.660156 137.296875 -367.421875 C 115.816406 -384.179688 98.628906 -403.519531 85.734375 -425.4375 C 72.835938 -447.351562 66.390625 -473.140625 66.390625 -502.796875 C 66.390625 -520.847656 70.253906 -539.003906 77.984375 -557.265625 C 85.722656 -575.523438 98.082031 -592.28125 115.0625 -607.53125 C 132.039062 -622.789062 154.28125 -634.929688 181.78125 -643.953125 C 209.28125 -652.984375 243.015625 -657.5 282.984375 -657.5 C 322.085938 -657.5 357.96875 -653.953125 390.625 -646.859375 C 423.289062 -639.773438 448.648438 -632.148438 466.703125 -623.984375 L 466.703125 -495.0625 L 461.546875 -495.0625 C 461.546875 -495.0625 459.070312 -499.894531 454.125 -509.5625 C 449.1875 -519.226562 441.664062 -531.148438 431.5625 -545.328125 C 421.46875 -559.515625 408.898438 -573.59375 393.859375 -587.5625 C 378.816406 -601.53125 361.195312 -613.347656 341 -623.015625 C 320.800781 -632.679688 298.238281 -637.515625 273.3125 -637.515625 C 248.820312 -637.515625 225.507812 -633.753906 203.375 -626.234375 C 181.238281 -618.710938 163.1875 -607.109375 149.21875 -591.421875 C 135.257812 -575.742188 128.28125 -555.65625 128.28125 -531.15625 C 128.28125 -509.238281 134.722656 -489.898438 147.609375 -473.140625 C 160.503906 -456.378906 177.695312 -441.015625 199.1875 -427.046875 C 220.675781 -413.085938 244.203125 -399.550781 269.765625 -386.4375 C 295.335938 -373.332031 320.90625 -359.6875 346.46875 -345.5 C 372.039062 -331.320312 395.570312 -315.742188 417.0625 -298.765625 C 438.550781 -281.796875 455.738281 -262.457031 468.625 -240.75 C 481.519531 -219.050781 487.96875 -193.804688 487.96875 -165.015625 C 487.96875 -137.085938 481.519531 -112.164062 468.625 -90.25 C 455.738281 -68.332031 438.441406 -49.632812 416.734375 -34.15625 C 395.035156 -18.6875 370.863281 -6.976562 344.21875 0.96875 C 317.570312 8.914062 290.285156 12.890625 262.359375 12.890625 C 221.535156 12.890625 182.210938 8.164062 144.390625 -1.28125 C 106.578125 -10.738281 75.632812 -26 51.5625 -47.0625 Z M 51.5625 -47.0625 "/></g></g></g></g></g><g transform="matrix(1, 0, 0, 1, 0, 0.000000000000112861)"><g clip-path="url(#f7cb792b60)"><g mask="url(#6cfbbdd188)"><g transform="matrix(1, 0, 0, 1, 0, 0.000000000000112861)"><g clip-path="url(#f2946eb1ef)"><g clip-path="url(#27a29213bc)"><rect x="-546" fill="url(#b57027c26d)" width="2592" y="-545.999976" height="2591.999885"/></g></g></g></g></g></g><g clip-path="url(#9a5171493b)"><g transform="matrix(1, 0, 0, 1, 224, 660)"><g clip-path="url(#b622afe58e)"><g clip-path="url(#db7308bdd4)"><path fill="#ebe2d5" d="M 0.207031 0.570312 L 986.128906 0.570312 L 986.128906 203.949219 L 0.207031 203.949219 Z M 0.207031 0.570312 " fill-opacity="1" fill-rule="nonzero"/></g></g></g></g><g fill="#561269" fill-opacity="1"><g transform="translate(536.684987, 802.305169)"><g><path d="M 49.457031 -23.574219 C 48.5625 -33.046875 42.488281 -38.351562 33.101562 -40.753906 L 18.8125 -44.484375 C 11.050781 -46.542969 7.945312 -49.933594 7.40625 -55.65625 C 6.550781 -64.738281 13.703125 -68.097656 19.328125 -68.628906 C 29.886719 -69.621094 37.164062 -61.046875 38.804688 -54.234375 L 39.988281 -54.34375 L 38.425781 -70.925781 L 37.734375 -70.859375 C 36.183594 -68.324219 33.257812 -67.648438 30.1875 -68.554688 C 27.125 -69.363281 23.753906 -70.238281 19.3125 -69.820312 C 8.359375 -68.789062 0.0546875 -60.742188 0.984375 -50.871094 C 1.878906 -41.398438 7.382812 -36.835938 16.78125 -34.335938 L 29.652344 -30.867188 C 36.800781 -28.953125 40.613281 -24.433594 41.160156 -18.609375 C 41.96875 -10.023438 37.078125 -3.789062 27.011719 -2.84375 C 16.355469 -1.839844 6.199219 -11.335938 2.121094 -21.90625 L 0.933594 -21.792969 L 2.859375 -1.363281 L 3.648438 -1.4375 C 4.726562 -3.730469 6.777344 -5.21875 11.734375 -4.390625 C 17.507812 -3.339844 20.621094 -0.945312 28.417969 -1.679688 C 44.800781 -3.222656 50.132812 -16.367188 49.457031 -23.574219 Z M 49.457031 -23.574219 "/></g></g></g><g fill="#561269" fill-opacity="1"><g transform="translate(590.959398, 797.195609)"><g><path d="M 46.175781 -5.542969 L 41.238281 -5.078125 L 39.027344 -28.566406 C 38.082031 -38.632812 32.917969 -42.726562 23.9375 -41.878906 C 17.914062 -41.3125 14.132812 -37.074219 12.136719 -32.902344 L 11.929688 -32.984375 L 8.660156 -67.722656 L -4.566406 -66.476562 L -4.453125 -65.292969 L 0.480469 -65.757812 L 6.5 -1.808594 L 1.566406 -1.34375 L 1.679688 -0.15625 L 19.835938 -1.867188 L 19.726562 -3.050781 L 14.789062 -2.585938 L 12.652344 -25.285156 C 11.917969 -33.082031 17.175781 -39.652344 22.109375 -40.117188 C 25.761719 -40.460938 29.6875 -38.9375 30.347656 -31.929688 L 32.949219 -4.296875 L 28.015625 -3.832031 L 28.128906 -2.648438 L 46.285156 -4.359375 Z M 46.175781 -5.542969 "/></g></g></g><g fill="#561269" fill-opacity="1"><g transform="translate(640.694496, 792.513393)"><g><path d="M 43.566406 -6.789062 C 42.484375 -5.59375 41.1875 -4.574219 39.609375 -4.425781 C 36.648438 -4.148438 34.773438 -6.0625 34.488281 -9.121094 L 32.675781 -28.367188 C 31.800781 -37.644531 24.132812 -41.898438 16.335938 -41.164062 C 9.429688 -40.515625 1.914062 -35.726562 2.5625 -28.816406 C 2.816406 -26.152344 4.671875 -23.339844 7.929688 -23.648438 C 10.691406 -23.90625 12.078125 -26.128906 11.898438 -28.003906 C 11.742188 -29.679688 11.058594 -30.613281 10.382812 -31.445312 C 9.707031 -32.277344 8.929688 -33.101562 8.808594 -34.382812 C 8.625 -36.355469 11.621094 -39.425781 16.160156 -39.855469 C 20.800781 -40.289062 23.714844 -37.878906 24.171875 -33.042969 L 24.96875 -24.554688 C 23.386719 -22.3125 19.453125 -20.75 14.96875 -19.730469 C 11.453125 -19 8.699219 -18.640625 6.117188 -17.503906 C 2.191406 -15.839844 1.269531 -12.964844 1.574219 -9.707031 C 2.246094 -2.601562 8.292969 0.3125 15.203125 -0.335938 C 22.109375 -0.984375 25.101562 -5.152344 26.625 -9.078125 L 26.824219 -9.097656 C 28.597656 -3.988281 34.238281 -2.226562 38.285156 -2.609375 C 40.160156 -2.785156 42.742188 -3.925781 44.234375 -6.054688 Z M 25.851562 -15.179688 C 26.734375 -5.800781 20.195312 -2.300781 16.640625 -1.964844 C 13.1875 -1.640625 10.882812 -3.910156 10.4375 -8.648438 C 9.84375 -14.964844 13.011719 -17.253906 16.667969 -18.59375 C 19.753906 -19.683594 22.054688 -20.59375 24.957031 -22.5625 L 25.164062 -22.480469 Z M 25.851562 -15.179688 "/></g></g></g><g fill="#561269" fill-opacity="1"><g transform="translate(686.482369, 788.202782)"><g><path d="M 33.144531 -32.890625 C 32.523438 -39.503906 27.003906 -42.070312 23.550781 -41.746094 C 18.714844 -41.289062 14.6875 -37.523438 12.355469 -31.628906 L 12.050781 -31.699219 L 11.335938 -39.300781 L -1.890625 -38.054688 L -1.769531 -36.773438 L 3.164062 -37.238281 L 6.5 -1.808594 L 1.566406 -1.34375 L 1.679688 -0.15625 L 19.835938 -1.867188 L 19.726562 -3.050781 L 14.789062 -2.585938 L 12.941406 -22.226562 C 12.050781 -31.699219 18.074219 -39.636719 21.921875 -40 C 23.699219 -40.164062 24.671875 -39.359375 24.792969 -38.078125 C 24.882812 -37.089844 24.699219 -35.878906 24.328125 -34.550781 C 23.953125 -33.21875 23.691406 -31.800781 23.820312 -30.417969 C 24.042969 -28.050781 26.042969 -25.851562 28.902344 -26.117188 C 31.570312 -26.371094 33.488281 -29.238281 33.144531 -32.890625 Z M 33.144531 -32.890625 "/></g></g></g><g fill="#561269" fill-opacity="1"><g transform="translate(725.362588, 784.542479)"><g><path d="M 37.496094 -24.738281 C 36.828125 -31.84375 29.867188 -42.339844 17.824219 -41.207031 C 7.5625 -40.238281 0.117188 -30.476562 1.203125 -18.929688 C 2.125 -9.160156 10.984375 0.359375 22.925781 -0.765625 C 28.949219 -1.332031 35.390625 -4.824219 37.132812 -12.753906 L 36 -13.148438 C 33.960938 -5.1875 27.730469 -2.609375 23.488281 -2.210938 C 16.582031 -1.5625 11.101562 -7.914062 10.128906 -18.277344 L 9.765625 -22.125 Z M 9.734375 -23.519531 C 9.441406 -32.949219 11.917969 -39.453125 18.332031 -40.058594 C 23.265625 -40.523438 27.679688 -38.050781 28.488281 -29.464844 L 28.878906 -25.320312 Z M 9.734375 -23.519531 "/></g></g></g><g fill="#561269" fill-opacity="1"><g transform="translate(769.374193, 780.399091)"><g/></g></g><g fill="#561269" fill-opacity="1"><g transform="translate(788.123547, 778.633969)"><g><path d="M 50.351562 -21.46875 C 49.382812 -31.730469 39.128906 -37.039062 30.382812 -37.90625 L 30.363281 -38.105469 C 38.335938 -40.148438 45.886719 -44.542969 45.023438 -53.722656 C 44.214844 -62.308594 35.503906 -70.25 21.6875 -68.949219 L -4.171875 -66.515625 L -4.058594 -65.332031 L 2.847656 -65.980469 L 8.871094 -2.03125 L 1.960938 -1.378906 L 2.074219 -0.195312 L 26.648438 -2.507812 C 47.765625 -4.496094 51.058594 -13.964844 50.351562 -21.46875 Z M 34.878906 -54.660156 C 36.105469 -41.632812 31.125 -38.476562 23.035156 -37.714844 L 15.730469 -37.027344 L 12.914062 -66.929688 L 21.207031 -67.710938 C 29.890625 -68.527344 34.117188 -62.753906 34.878906 -54.660156 Z M 40.195312 -22.503906 C 41.164062 -12.238281 37.882812 -4.761719 27.621094 -3.796875 L 18.9375 -2.976562 L 15.84375 -35.839844 L 25.910156 -36.789062 C 34.394531 -37.589844 39.324219 -31.78125 40.195312 -22.503906 Z M 40.195312 -22.503906 "/></g></g></g><g fill="#561269" fill-opacity="1"><g transform="translate(843.384778, 773.431506)"><g><path d="M 19.726562 -3.050781 L 14.789062 -2.585938 L 8.660156 -67.722656 L -4.566406 -66.476562 L -4.453125 -65.292969 L 0.480469 -65.757812 L 6.5 -1.808594 L 1.566406 -1.34375 L 1.679688 -0.15625 L 19.835938 -1.867188 Z M 19.726562 -3.050781 "/></g></g></g><g fill="#561269" fill-opacity="1"><g transform="translate(868.252328, 771.090399)"><g><path d="M 44.960938 -22.652344 C 43.78125 -35.1875 33.203125 -42.851562 20.867188 -41.691406 C 7.9375 -40.472656 0.15625 -30.082031 1.128906 -19.722656 C 2.273438 -7.582031 12.378906 0.328125 24.910156 -0.851562 C 36.65625 -1.957031 46.085938 -10.710938 44.960938 -22.652344 Z M 35.882812 -21.796875 C 37.238281 -7.390625 31.117188 -2.628906 24.800781 -2.035156 C 17.296875 -1.328125 11.660156 -5.179688 10.171875 -20.96875 C 8.789062 -35.675781 15.253906 -39.96875 21.078125 -40.515625 C 27.789062 -41.148438 34.394531 -37.589844 35.882812 -21.796875 Z M 35.882812 -21.796875 "/></g></g></g><g fill="#561269" fill-opacity="1"><g transform="translate(919.566321, 766.259542)"><g><path d="M 42.515625 -35.964844 C 42.125 -40.109375 38.640625 -43.265625 34.988281 -42.921875 C 31.730469 -42.613281 29.84375 -40.445312 28.042969 -37.386719 C 24.695312 -40.160156 20.183594 -41.527344 15.941406 -41.128906 C 8.933594 -40.46875 0.761719 -34.222656 1.578125 -25.539062 C 2.15625 -19.417969 6.351562 -15.035156 12 -13.175781 L 12.03125 -12.882812 C 6.40625 -11.257812 2.585938 -8.507812 3.019531 -3.867188 C 3.476562 0.96875 6.75 2.949219 10.019531 3.835938 L 10.039062 4.035156 C 8.066406 5.3125 4.507812 8.734375 4.914062 13.078125 C 5.554688 19.886719 11.871094 26.660156 24.207031 25.5 C 35.949219 24.394531 44.277344 18.730469 43.332031 8.664062 C 42.382812 -1.402344 35.226562 -5.507812 27.132812 -4.746094 L 14.203125 -3.527344 C 8.382812 -2.980469 6.625 -4.707031 6.441406 -6.679688 C 6.144531 -9.839844 11.648438 -11.652344 16.265625 -12.285156 C 17.066406 -12.261719 17.964844 -12.246094 18.753906 -12.320312 C 26.453125 -13.042969 34.207031 -18.453125 33.332031 -27.730469 C 33 -31.285156 31.4375 -34.125 29.132812 -36.394531 C 31.148438 -40.367188 33.039062 -41.441406 34.714844 -41.601562 C 35.40625 -41.667969 35.925781 -41.417969 36.179688 -40.84375 C 36.308594 -40.554688 36.273438 -39.855469 35.945312 -39.128906 C 35.445312 -38.085938 35.070312 -36.757812 35.203125 -35.375 C 35.433594 -32.90625 37.429688 -31.800781 39.503906 -31.996094 C 41.082031 -32.144531 42.710938 -33.890625 42.515625 -35.964844 Z M 25.929688 -27.035156 C 26.925781 -16.472656 21.996094 -13.820312 18.742188 -13.511719 C 13.511719 -13.019531 10.035156 -16.078125 9.105469 -25.949219 C 8.058594 -37.101562 12.402344 -39.601562 16.152344 -39.953125 C 20.691406 -40.378906 24.871094 -38.285156 25.929688 -27.035156 Z M 40.269531 11.042969 C 40.796875 16.667969 37.320312 23.070312 24.6875 24.261719 C 14.421875 25.226562 8.59375 21.492188 7.84375 13.5 C 7.277344 7.480469 10.492188 3.59375 21.941406 2.515625 L 26.1875 2.113281 C 36.253906 1.167969 39.757812 5.617188 40.269531 11.042969 Z M 40.269531 11.042969 "/></g></g></g></svg>